<svg xmlns="http://www.w3.org/2000/svg" xmlns:xlink="http://www.w3.org/1999/xlink" width="50" height="50" viewBox="0 0 50 50">
  <defs>
    <clipPath id="clip-path">
      <rect id="Rectangle_4843" data-name="Rectangle 4843" width="50" height="50" transform="translate(-20150 -21236)" fill="#c5c5c5"/>
    </clipPath>
    <clipPath id="clip-path-2">
      <rect id="Rectangle_4844" data-name="Rectangle 4844" width="45.543" height="43.278" fill="#049b93"/>
    </clipPath>
  </defs>
  <g id="grid_settings" transform="translate(20150 21236)" clip-path="url(#clip-path)">
    <g id="Group_12861" data-name="Group 12861" transform="translate(-20147.771 -21232.639)" clip-path="url(#clip-path-2)">
      <path id="Path_19255" data-name="Path 19255" d="M34.3,0H1.491A1.5,1.5,0,0,0,0,1.491v34.3a1.5,1.5,0,0,0,1.491,1.491H21.7a12.2,12.2,0,0,1-2.147-2.237H2.237V2.237H33.553V15.613a11.619,11.619,0,0,1,2.237,1V1.491A1.486,1.486,0,0,0,34.3,0" transform="translate(1.907 1.699)" fill="#666"/>
      <path id="Path_19256" data-name="Path 19256" d="M7,0V37.281H18.259a12.2,12.2,0,0,1-2.147-2.237H9.237V2.237H19.675v14.51a12.822,12.822,0,0,1,2.237-1.059V0Z" transform="translate(5.346 1.699)" fill="#666"/>
      <path id="Path_19257" data-name="Path 19257" d="M0,8V21.421H17.224a11.233,11.233,0,0,1,.6-2.237H2.237V10.237H33.553v1.446a11.619,11.619,0,0,1,2.237,1V8Z" transform="translate(1.907 5.629)" fill="#666"/>
      <path id="Path_19258" data-name="Path 19258" d="M35.245,26.74V24.51a.482.482,0,0,0-.482-.482h-.888a.482.482,0,0,1-.466-.377,8.273,8.273,0,0,0-.97-2.346.482.482,0,0,1,.064-.6l.626-.626a.483.483,0,0,0,0-.681l-1.577-1.577a.482.482,0,0,0-.683,0l-.626.626a.484.484,0,0,1-.595.064,8.265,8.265,0,0,0-2.348-.97.484.484,0,0,1-.377-.467v-.887a.483.483,0,0,0-.482-.484h-2.23a.484.484,0,0,0-.482.484v.887a.482.482,0,0,1-.375.467,8.265,8.265,0,0,0-2.348.97.487.487,0,0,1-.6-.064l-.626-.626a.48.48,0,0,0-.681,0L17.526,19.4a.48.48,0,0,0,0,.681l.626.626a.484.484,0,0,1,.064.6,8.273,8.273,0,0,0-.97,2.346.482.482,0,0,1-.467.377h-.887a.482.482,0,0,0-.482.482v2.23a.482.482,0,0,0,.482.482h.887a.484.484,0,0,1,.467.377,8.264,8.264,0,0,0,.97,2.348.482.482,0,0,1-.064.595l-.626.626a.482.482,0,0,0,0,.683L19.1,33.427a.483.483,0,0,0,.681,0l.626-.626a.483.483,0,0,1,.6-.064,8.264,8.264,0,0,0,2.348.97.482.482,0,0,1,.375.466v.888a.483.483,0,0,0,.482.482h2.23a.483.483,0,0,0,.482-.482v-.888a.483.483,0,0,1,.377-.466,8.264,8.264,0,0,0,2.348-.97.48.48,0,0,1,.595.064l.626.626a.485.485,0,0,0,.683,0l1.577-1.577a.485.485,0,0,0,0-.683l-.626-.626a.48.48,0,0,1-.064-.595,8.264,8.264,0,0,0,.97-2.348.483.483,0,0,1,.466-.377h.888A.482.482,0,0,0,35.245,26.74Z" transform="translate(8.003 5.29)" fill="none" stroke="#666" stroke-miterlimit="10" stroke-width="1.8"/>
      <ellipse id="Ellipse_275" data-name="Ellipse 275" cx="3.233" cy="3.233" rx="3.233" ry="3.233" transform="translate(30.097 27.682)" fill="none" stroke="#666" stroke-miterlimit="10" stroke-width="1.5"/>
    </g>
  </g>
</svg>
